<svg id="visual" viewBox="0 0 960 320" width="960" height="320" xmlns="http://www.w3.org/2000/svg" xmlns:xlink="http://www.w3.org/1999/xlink" version="1.1"><path d="M0 93L22.8 100.3C45.7 107.7 91.3 122.3 137 118.8C182.7 115.3 228.3 93.7 274 89.7C319.7 85.7 365.3 99.3 411.2 100.8C457 102.3 503 91.7 548.8 83.3C594.7 75 640.3 69 686 71C731.7 73 777.3 83 823 95C868.7 107 914.3 121 937.2 128L960 135L960 321L937.2 321C914.3 321 868.7 321 823 321C777.3 321 731.7 321 686 321C640.3 321 594.7 321 548.8 321C503 321 457 321 411.2 321C365.3 321 319.7 321 274 321C228.3 321 182.7 321 137 321C91.3 321 45.7 321 22.8 321L0 321Z" fill="#17246e"></path><path d="M0 113L22.8 113.8C45.7 114.7 91.3 116.3 137 125.8C182.7 135.3 228.3 152.7 274 152.7C319.7 152.7 365.3 135.3 411.2 135C457 134.7 503 151.3 548.8 155.7C594.7 160 640.3 152 686 144.2C731.7 136.3 777.3 128.7 823 123.3C868.7 118 914.3 115 937.2 113.5L960 112L960 321L937.2 321C914.3 321 868.7 321 823 321C777.3 321 731.7 321 686 321C640.3 321 594.7 321 548.8 321C503 321 457 321 411.2 321C365.3 321 319.7 321 274 321C228.3 321 182.7 321 137 321C91.3 321 45.7 321 22.8 321L0 321Z" fill="#0d1e59"></path><path d="M0 218L22.8 209.3C45.7 200.7 91.3 183.3 137 181.2C182.7 179 228.3 192 274 195.2C319.7 198.3 365.3 191.7 411.2 192.5C457 193.3 503 201.7 548.8 203.5C594.7 205.3 640.3 200.7 686 194.7C731.7 188.7 777.3 181.3 823 178.5C868.7 175.7 914.3 177.3 937.2 178.2L960 179L960 321L937.2 321C914.3 321 868.7 321 823 321C777.3 321 731.7 321 686 321C640.3 321 594.7 321 548.8 321C503 321 457 321 411.2 321C365.3 321 319.7 321 274 321C228.3 321 182.7 321 137 321C91.3 321 45.7 321 22.8 321L0 321Z" fill="#071745"></path><path d="M0 246L22.8 245.5C45.7 245 91.3 244 137 236.8C182.7 229.7 228.3 216.3 274 209.2C319.7 202 365.3 201 411.2 208C457 215 503 230 548.8 232.5C594.7 235 640.3 225 686 222.8C731.7 220.7 777.3 226.3 823 228C868.7 229.7 914.3 227.3 937.2 226.2L960 225L960 321L937.2 321C914.3 321 868.7 321 823 321C777.3 321 731.7 321 686 321C640.3 321 594.7 321 548.8 321C503 321 457 321 411.2 321C365.3 321 319.7 321 274 321C228.3 321 182.7 321 137 321C91.3 321 45.7 321 22.8 321L0 321Z" fill="#060e31"></path><path d="M0 265L22.8 262.8C45.7 260.7 91.3 256.3 137 258.7C182.7 261 228.3 270 274 273.3C319.7 276.7 365.3 274.3 411.2 275C457 275.7 503 279.3 548.8 274.8C594.7 270.3 640.3 257.7 686 252.2C731.7 246.7 777.3 248.3 823 249.7C868.7 251 914.3 252 937.2 252.5L960 253L960 321L937.2 321C914.3 321 868.7 321 823 321C777.3 321 731.7 321 686 321C640.3 321 594.7 321 548.8 321C503 321 457 321 411.2 321C365.3 321 319.7 321 274 321C228.3 321 182.7 321 137 321C91.3 321 45.7 321 22.8 321L0 321Z" fill="#00001f"></path></svg>